Coordinates
version=1
nRows=17
nColumns=36
inDegrees=yes

Units are S.I. units (second, meters, Newtons, ...)
If the header above contains a line with 'inDegrees', this indicates whether rotational values are in degrees (yes) or radians (no).

endheader
time	pelvis_tilt	pelvis_list	pelvis_rotation	pelvis_tx	pelvis_ty	pelvis_tz	hip_flexion_r	hip_adduction_r	hip_rotation_r	knee_angle_r	knee_angle_r_beta	ankle_angle_r	subtalar_angle_r	mtp_angle_r	hip_flexion_l	hip_adduction_l	hip_rotation_l	knee_angle_l	knee_angle_l_beta	ankle_angle_l	subtalar_angle_l	mtp_angle_l	lumbar_extension	lumbar_bending	lumbar_rotation	arm_flex_r	arm_add_r	arm_rot_r	elbow_flex_r	pro_sup_r	arm_flex_l	arm_add_l	arm_rot_l	elbow_flex_l	pro_sup_l
      2.48333330	     -7.39978388	      3.07489723	     -1.14975035	     -0.20084539	      1.21979081	      0.11402136	      7.30677175	     -2.47542397	      2.24900420	      2.99867280	      0.05233671	      7.36792938	     -9.40238108	     -7.49999987	      6.01906030	     -0.57300529	    -12.07627395	      1.91545116	      0.03343093	      8.78364949	     -2.88677011	     -7.49999987	      1.81448130	     -0.85483185	      0.16006356	      4.58808734	    -11.02502150	     26.86929978	     28.56064732	     61.15460863	     -0.16488264	    -13.98980330	     25.78247225	     31.44152248	     68.89752278
      2.50000000	     -7.24561217	      2.96166993	     -1.02887544	     -0.19980780	      1.21770858	      0.11378435	      7.11424933	     -2.34636120	      2.40214266	      2.92807841	      0.05110461	      7.67682022	     -9.14385726	     -7.49999987	      5.75519062	     -0.68895455	    -12.07578817	      1.82431369	      0.03184028	      8.87589993	     -2.52814708	     -7.49999987	      1.82009928	     -0.75579774	     -0.02714871	      4.56022817	    -11.03535830	     26.65120694	     28.75018126	     61.26516247	     -0.44660087	    -13.73727015	     24.18187614	     31.47592228	     72.97247386
      2.51666670	     -7.12475564	      2.87893792	     -0.90011604	     -0.19903350	      1.21883319	      0.11293488	      6.92498586	     -2.26405853	      2.57370291	      2.83007070	      0.04939405	      7.85599893	     -9.01906763	     -7.49999987	      5.52368271	     -0.75593012	    -12.10566495	      1.73450163	      0.03027276	      8.96837088	     -2.27148284	     -7.49999987	      1.95922077	     -0.66245736	     -0.05239423	      4.51225627	    -11.10555810	     26.88047791	     28.69862506	     61.07260551	     -0.32288063	    -13.76294222	     25.55884255	     31.26297096	     69.24741671
      2.53333330	     -6.95129138	      2.83845210	     -0.75643443	     -0.19877174	      1.22095172	      0.11318012	      6.57755345	     -2.24925138	      2.49705481	      2.81932913	      0.04920658	      7.92733916	     -8.93239449	     -7.49999987	      5.25929238	     -0.78107053	    -12.13084232	      1.70830328	      0.02981552	      9.02866264	     -2.05794250	     -7.49999987	      1.93880026	     -0.63649809	     -0.05164579	      4.43415227	    -11.08632203	     26.37051256	     28.81011828	     61.33912635	     -0.38581062	    -13.55074492	     24.47141827	     31.05194659	     72.99687606
      2.55000000	     -6.81254194	      2.80130427	     -0.65425726	     -0.19677395	      1.22113055	      0.11252130	      6.29117912	     -2.20927581	      2.55973598	      2.81054607	      0.04905328	      8.03283320	     -8.94781068	     -7.49999987	      4.99282486	     -0.79658165	    -12.25090165	      1.64994269	      0.02879693	      9.15830322	     -1.73004077	     -7.49999987	      1.96575865	     -0.59718952	     -0.06877390	      4.43603352	    -11.10105146	     26.44595672	     28.80814691	     61.26790269	     -0.38652666	    -13.55824993	     25.25954503	     31.00608180	     69.77558653
      2.56666670	     -6.72663996	      2.77595574	     -0.44903293	     -0.19753300	      1.21960952	      0.11279607	      6.04621355	     -2.19959446	      2.57334970	      2.75870270	      0.04814845	      8.23514582	     -8.78041067	     -7.49999987	      4.85532700	     -0.79679853	    -12.15864113	      1.60309584	      0.02797930	      9.21922320	     -1.65016654	     -7.49999987	      2.02536881	     -0.60608943	     -0.05382140	      4.34096311	    -11.06962168	     25.96622603	     28.91056102	     61.49655882	     -0.36718308	    -13.43881465	     24.56772531	     30.82916570	     72.85467843
      2.58333330	     -6.65838841	      2.76330243	     -0.34992095	     -0.19595693	      1.21870611	      0.11155736	      5.87679068	     -2.19700433	      2.75153415	      2.71693314	      0.04741943	      8.43223890	     -8.75762077	     -7.49999987	      4.69689632	     -0.78657710	    -12.18145486	      1.54133112	      0.02690130	      9.40364469	     -1.42494521	     -7.49999987	      2.13541045	     -0.58063327	     -0.08830722	      4.36925658	    -11.09587232	     26.14510466	     28.90930338	     61.51035886	     -0.41897013	    -13.44692430	     25.09758102	     30.79935719	     70.76067810
      2.60000000	     -6.56817891	      2.77402456	     -0.19880171	     -0.19762648	      1.21823021	      0.11149067	      5.70595811	     -2.23552953	      2.83482493	      2.69526194	      0.04704119	      8.58773971	     -8.80891601	     -7.49999987	      4.56999661	     -0.74586872	    -12.06982255	      1.52427892	      0.02660369	      9.47413680	     -1.39733436	     -7.49999987	      2.14932171	     -0.59697659	     -0.00147876	      4.39622477	    -11.15175640	     26.31082111	     28.96871803	     61.35996768	     -0.24280102	    -13.50888026	     26.02158970	     30.70115057	     68.77169214
      2.61666670	     -6.55875760	      2.78645019	     -0.06459041	     -0.19799351	      1.21815571	      0.11138794	      5.63916865	     -2.27276887	      2.93742959	      2.68258286	      0.04681990	      8.80093472	     -8.70823029	     -7.49999987	      4.59360532	     -0.71361218	    -12.04989753	      1.51550816	      0.02645061	      9.56433099	     -1.17896308	     -7.49999987	      2.19946992	     -0.59761002	     -0.02653394	      4.40583361	    -10.95325748	     25.30471922	     28.82447556	     60.96654712	     -0.32096929	    -13.32734282	     25.28259209	     30.62868168	     66.96170176
      2.63333330	     -6.48819826	      2.79074198	      0.07316614	     -0.19679263	      1.21781595	      0.11123980	      5.49490835	     -2.29230168	      3.08076261	      2.66681916	      0.04654477	      8.89367251	     -8.78193783	     -7.49999987	      4.53043471	     -0.70246801	    -11.91664211	      1.50601526	      0.02628492	      9.63092993	     -1.21019064	     -7.49999987	      2.20144324	     -0.64103867	      0.04228497	      4.52398034	    -11.03550846	     25.96263558	     28.77625253	     61.70079147	     -0.31952319	    -13.25508739	     24.26695894	     30.52442458	     73.16241446
      2.65000000	     -6.52464601	      2.77356329	      0.22122658	     -0.19764935	      1.21669788	      0.11134514	      5.48206448	     -2.31552596	      2.90895932	      2.73651216	      0.04776115	      9.02818232	     -8.68220678	     -7.49999987	      4.63033442	     -0.70963335	    -11.70429433	      1.52388002	      0.02659672	      9.61829254	     -1.30321348	     -7.49999987	      2.37805531	     -0.59908924	      0.04602449	      4.67482534	    -10.91820458	     25.82774979	     28.38411385	     61.05155608	     -0.17794910	    -13.25658458	     25.32274842	     30.28879626	     67.34615629
      2.66666670	     -6.41208593	      2.74966531	      0.22624357	     -0.19749999	      1.21671013	      0.11102571	      5.36600889	     -2.29338323	      3.09856592	      2.80202232	      0.04890452	      9.02027611	     -8.93044073	     -7.49999987	      4.51102433	     -0.74705216	    -11.85088819	      1.46649621	      0.02559519	      9.78259083	     -0.99499689	     -7.49999987	      2.19095355	     -0.60366528	      0.18937240	      4.70257618	    -10.99521806	     25.96700621	     28.69508077	     61.72747542	     -0.21448273	    -13.19673465	     24.20109386	     30.37614897	     73.10303769
      2.68333330	     -6.33307717	      2.73361091	      0.30691508	     -0.19772695	      1.21673890	      0.11100955	      5.25501909	     -2.30822003	      3.01487732	      2.93302396	      0.05119093	      9.01124308	     -9.09879430	     -7.49999987	      4.45091519	     -0.76063367	    -11.86380118	      1.46445843	      0.02555962	      9.85119248	     -0.84991073	     -7.49999987	      2.13035864	     -0.59367602	      0.23348134	      4.86959195	    -11.00132100	     26.32718085	     28.59992180	     61.60124635	     -0.08211271	    -13.24754800	     25.00433032	     30.24962341	     70.39541239
      2.70000000	     -6.47905862	      2.71782446	      0.40831133	     -0.19675504	      1.21817900	      0.11100378	      5.45483415	     -2.27398015	      3.31384486	      3.00439501	      0.05243658	      9.15756495	     -9.11896020	     -7.49999987	      4.60816005	     -0.78253628	    -11.80563577	      1.44039023	      0.02513955	      9.85544382	     -0.80454715	     -7.49999987	      2.30770541	     -0.59050726	      0.26888666	      4.86523922	    -10.80813719	     25.73369293	     28.32948836	     61.01328805	     -0.11820649	    -13.12916108	     24.87330167	     30.10843083	     67.31519080
      2.71666670	     -6.44642213	      2.68646705	      0.58037216	     -0.19738219	      1.21736093	      0.11036850	      5.46933749	     -2.23479363	      3.58581590	      2.94552225	      0.05140906	      9.51588978	     -8.86982932	     -7.49999987	      4.57049784	     -0.80134859	    -11.55489945	      1.41225508	      0.02464850	      9.97276305	     -0.75516355	     -7.49999987	      2.24977169	     -0.59960825	      0.31276617	      4.92498698	    -10.92688441	     26.53379426	     28.36852691	     61.44928467	      0.11333543	    -13.32202721	     26.13590687	     30.01243441	     67.35180130
      2.73333330	     -6.47994653	      2.62329578	      0.76163778	     -0.19639602	      1.21696670	      0.11010662	      5.53532729	     -2.17407718	      3.77367712	      2.93725824	      0.05126483	      9.68736346	     -8.58811775	     -7.49999987	      4.58831968	     -0.86174634	    -11.35514012	      1.36478207	      0.02381994	     10.04790225	     -0.76662137	     -7.49999987	      2.29608517	     -0.56136541	      0.18981057	      4.89045863	    -10.68342299	     25.60477343	     28.13410040	     61.24386373	      0.03524940	    -13.10108588	     25.24702474	     29.70740935	     66.72069940
      2.75000000	     -6.45126180	      2.56993119	      0.75844299	     -0.19835275	      1.21700999	      0.10875935	      5.49720912	     -2.17472148	      3.67495108	      2.89973968	      0.05061000	      9.67529188	     -8.50007615	     -7.49999987	      4.55692131	     -0.87066591	    -11.39048374	      1.22785687	      0.02143015	     10.10892624	     -0.59896047	     -7.49999987	      2.22127915	     -0.47887602	      0.20730187	      5.05060617	    -10.82480032	     26.28205013	     28.08280377	     61.77698595	      0.10271213	    -12.95816896	     24.49875205	     29.53137118	     72.31933931
